<svg width="45" height="45" viewBox="0 0 45 45" fill="none" xmlns="http://www.w3.org/2000/svg">
<path opacity="0.5" d="M3.75 37.5C3.75 37.127 3.89816 36.7694 4.16188 36.5056C4.4256 36.2419 4.78329 36.0938 5.15625 36.0938H21.0938V28.125H23.9062V36.0938H39.8438C40.2167 36.0938 40.5744 36.2419 40.8381 36.5056C41.1018 36.7694 41.25 37.127 41.25 37.5C41.25 37.873 41.1018 38.2306 40.8381 38.4944C40.5744 38.7581 40.2167 38.9062 39.8438 38.9062H5.15625C4.78329 38.9062 4.4256 38.7581 4.16188 38.4944C3.89816 38.2306 3.75 37.873 3.75 37.5Z" fill="black"/>
<path fill-rule="evenodd" clip-rule="evenodd" d="M35.625 18.375V15.6919C35.625 12.4838 35.625 10.8787 34.6144 9.83625C34.5208 9.74021 34.4226 9.64884 34.32 9.5625C33.1988 8.625 31.47 8.625 28.0163 8.625H27.525C26.01 8.625 25.2544 8.625 24.5475 8.4375C24.1618 8.33595 23.7883 8.1926 23.4338 8.01C22.7944 7.67812 22.2581 7.18125 21.1875 6.1875L20.4656 5.51625C20.2327 5.29064 19.99 5.07543 19.7381 4.87125C18.9087 4.23921 17.916 3.85734 16.8769 3.77062C16.6313 3.75 16.38 3.75 15.8719 3.75C14.7131 3.75 14.1338 3.75 13.6519 3.83438C11.5275 4.2075 9.86625 5.74875 9.46687 7.72125C9.375 8.16938 9.375 8.7075 9.375 9.78375V18.375C9.375 22.9706 9.375 25.2694 10.9125 26.6962C12.45 28.125 14.925 28.125 19.875 28.125H25.125C30.075 28.125 32.55 28.125 34.0875 26.6981C35.625 25.2694 35.625 22.9706 35.625 18.375ZM25.3125 12.6562C24.9395 12.6562 24.5819 12.8044 24.3181 13.0681C24.0544 13.3319 23.9062 13.6895 23.9062 14.0625C23.9062 14.4355 24.0544 14.7931 24.3181 15.0569C24.5819 15.3206 24.9395 15.4688 25.3125 15.4688H30.9375C31.3105 15.4688 31.6681 15.3206 31.9319 15.0569C32.1956 14.7931 32.3438 14.4355 32.3438 14.0625C32.3438 13.6895 32.1956 13.3319 31.9319 13.0681C31.6681 12.8044 31.3105 12.6563 30.9375 12.6562H25.3125Z" fill="#E8E145"/>
<path d="M22.5 41.25C24.5711 41.25 26.25 39.5711 26.25 37.5C26.25 35.4289 24.5711 33.75 22.5 33.75C20.4289 33.75 18.75 35.4289 18.75 37.5C18.75 39.5711 20.4289 41.25 22.5 41.25Z" fill="black"/>
</svg>
